<svg width="167" height="37" viewBox="0 0 167 37" fill="none" xmlns="http://www.w3.org/2000/svg">
<path d="M9.90231 30.2687L9.76844 28.8382C8.68986 30.1004 7.15231 30.7353 5.15579 30.743C4.44057 30.743 3.68709 30.6129 2.89537 30.3452C2.10365 30.0775 1.42284 29.5994 0.856779 28.9071C0.290716 28.2148 0.00386016 27.2624 3.54152e-05 26.05C-0.00378933 24.8567 0.30219 23.8469 0.91415 23.0208C1.52993 22.1946 2.36755 21.5674 3.42701 21.1428C4.48646 20.7145 5.67979 20.5003 7.00315 20.4926C7.54626 20.4926 8.0932 20.5003 8.64396 20.5194C9.19855 20.5385 9.55808 20.5691 9.73402 20.6112V20.2861C9.73019 19.5059 9.42804 18.9474 8.83138 18.6147C8.23472 18.2819 7.55391 18.1136 6.79661 18.1175C5.77923 18.1175 4.92249 18.2552 4.23021 18.5191C3.53793 18.783 2.95274 19.0775 2.47847 19.4026L0.546974 16.5493C1.17423 16.0483 2.02715 15.5855 3.10956 15.1571C4.19196 14.7287 5.63389 14.5146 7.43152 14.5069C9.75314 14.4993 11.4666 15.115 12.5758 16.3581C13.685 17.6011 14.2472 19.2725 14.2549 21.3762L14.2893 30.2534L9.89848 30.2687H9.90231ZM9.75314 24.7725V23.5371C9.6384 23.518 9.43186 23.4912 9.12971 23.4568C8.82373 23.4262 8.4795 23.4109 8.08938 23.4109C6.78896 23.4147 5.8672 23.606 5.32791 23.977C4.78862 24.348 4.51706 24.8681 4.52089 25.5413C4.52471 26.7996 5.28584 27.4231 6.80426 27.4193C7.54244 27.4193 8.21942 27.1859 8.8352 26.727C9.45099 26.268 9.75697 25.6178 9.75314 24.7725Z" fill="#02090F"/>
<path d="M17.6745 30.242L17.6133 14.9889L22.0997 14.9698L22.268 16.6603C22.7423 16.0751 23.3466 15.5818 24.0848 15.1916C24.8191 14.7977 25.6873 14.5988 26.6856 14.595C27.898 14.5911 28.8657 14.813 29.5809 15.2643C30.2961 15.7156 30.8316 16.1937 31.1797 16.6909C31.8069 16.0178 32.568 15.4938 33.4669 15.119C34.3657 14.748 35.3027 14.5605 36.278 14.5567C38.2057 14.5491 39.6935 15.0998 40.7415 16.2128C41.7857 17.3258 42.3135 18.8251 42.3211 20.7107L42.3594 30.1426L37.6779 30.1617L37.6435 21.4795C37.6435 20.5922 37.4369 19.8922 37.0353 19.3835C36.6299 18.8749 36.0294 18.6224 35.2262 18.6262C34.3351 18.6262 33.616 18.9475 33.0653 19.5786C32.5145 20.2097 32.2429 21.0129 32.2468 21.9882L32.2774 30.1846L27.7565 30.2038L27.7221 21.5216C27.7221 20.6342 27.5156 19.9343 27.114 19.4256C26.7085 18.9169 26.108 18.6645 25.3048 18.6683C24.4366 18.6683 23.7214 18.9896 23.163 19.6207C22.6008 20.2518 22.3215 21.055 22.3254 22.0303L22.356 30.2267L17.6745 30.2458V30.242Z" fill="#02090F"/>
<path d="M45.3155 30.1309L45.304 26.9754L52.7508 18.6184L45.5947 18.6451L45.5794 14.8739L58.6524 14.8242L58.6639 18.0447L51.1827 26.4323L58.7289 26.4017L58.7442 30.0773L45.3117 30.1309H45.3155Z" fill="#02090F"/>
<path d="M76.774 23.5721V23.1782C76.774 22.1302 76.6478 21.0861 76.3954 20.0802C76.1468 19.0819 75.7337 18.1678 75.1715 17.3608C74.613 16.5652 73.8634 15.915 72.9531 15.4407C72.039 14.9626 70.8877 14.7217 69.5338 14.7217C68.0766 14.7217 66.7723 15.0659 65.6593 15.7391C64.5463 16.416 63.659 17.3455 63.0241 18.4967C62.3891 19.6518 62.0679 20.9675 62.0679 22.4094C62.0679 23.9776 62.3968 25.3851 63.0432 26.5937C63.6857 27.7985 64.5999 28.7547 65.7549 29.4317C66.91 30.1086 68.2907 30.4529 69.8551 30.4529C71.0063 30.4529 72.0084 30.3305 72.8345 30.0895C73.6569 29.8486 74.3453 29.5655 74.877 29.2404C75.4086 28.9191 75.8178 28.6132 76.097 28.334L76.5254 27.9056L74.6704 25.8211C74.4945 25.9817 74.2459 26.1768 73.9322 26.4025C73.5383 26.6855 73.0105 26.9456 72.3603 27.1751C71.7024 27.4045 70.8686 27.5193 69.8818 27.5193C69.2049 27.5193 68.524 27.3586 67.8662 27.0412C67.2083 26.7237 66.6614 26.2801 66.2292 25.7178C65.797 25.1518 65.5752 24.4786 65.5752 23.7251V23.5798H76.7702L76.774 23.5721ZM65.5484 21.1473V21.0019C65.5484 20.4665 65.7052 19.931 66.015 19.407C66.3248 18.8868 66.78 18.4508 67.3613 18.1066C67.9465 17.7662 68.677 17.5902 69.53 17.5902C70.3829 17.5902 71.0254 17.7662 71.5609 18.1104C72.0925 18.4546 72.5018 18.8907 72.7772 19.4108C73.0525 19.931 73.1941 20.4664 73.1941 20.9981V21.1434H65.5446L65.5484 21.1473Z" fill="#02090F"/>
<path d="M100.446 30.2108C100.928 30.3638 101.662 30.4441 102.622 30.4441C103.662 30.4441 104.695 30.2375 105.686 29.8321C106.672 29.4267 107.594 28.7229 108.428 27.7476C108.925 27.1472 109.346 26.4281 109.682 25.6134C110.015 24.8026 110.183 23.8081 110.183 22.6645C110.183 21.3488 109.939 20.0867 109.457 18.9125C108.979 17.7497 108.248 16.7859 107.28 16.0477C106.32 15.3134 105.074 14.9424 103.578 14.9424C102.373 14.9424 101.383 15.1604 100.629 15.5926C99.8719 16.0286 99.2944 16.4608 98.9234 16.8739L98.6863 17.134L98.5792 15.2254H95.2172V36.3265H98.6671V29.5759L98.866 29.6524C99.4206 29.8665 99.9484 30.054 100.442 30.2069L100.446 30.2108ZM98.671 26.4702V21.957C98.671 21.3603 98.8393 20.7407 99.1682 20.1134C99.4971 19.49 99.9561 18.9622 100.541 18.5415C101.13 18.1207 101.83 17.9066 102.626 17.9066C103.613 17.9066 104.416 18.1246 105.016 18.5568C105.613 18.989 106.045 19.5703 106.301 20.2894C106.55 20.997 106.676 21.7925 106.676 22.6569C106.676 23.4639 106.5 24.2442 106.152 24.9747C105.8 25.709 105.292 26.3134 104.634 26.7761C103.972 27.2389 103.157 27.4761 102.213 27.4761C100.671 27.4761 99.4971 27.151 98.7283 26.5161L98.6748 26.4702H98.671Z" fill="#02090F"/>
<path d="M126.989 23.5721V23.1782C126.989 22.1302 126.863 21.0861 126.61 20.0802C126.358 19.0742 125.949 18.1678 125.386 17.3608C124.828 16.5652 124.078 15.915 123.168 15.4407C122.254 14.9626 121.103 14.7217 119.749 14.7217C118.291 14.7217 116.987 15.0659 115.874 15.7391C114.761 16.416 113.874 17.3455 113.239 18.4967C112.604 19.6518 112.283 20.9675 112.283 22.4094C112.283 23.9776 112.612 25.3851 113.258 26.5937C113.901 27.7985 114.815 28.7547 115.97 29.4317C117.125 30.1086 118.506 30.4529 120.07 30.4529C121.221 30.4529 122.227 30.3305 123.053 30.0895C123.876 29.8486 124.564 29.5655 125.096 29.2404C125.627 28.9191 126.037 28.6132 126.316 28.334L126.744 27.9056L124.889 25.8211C124.713 25.9817 124.465 26.1768 124.151 26.4025C123.757 26.6855 123.229 26.9456 122.579 27.1751C121.925 27.4045 121.091 27.5193 120.1 27.5193C119.424 27.5193 118.743 27.3586 118.085 27.0412C117.427 26.7276 116.88 26.2801 116.448 25.7178C116.016 25.1518 115.794 24.4786 115.794 23.7251V23.5798H126.989V23.5721ZM115.763 21.1473V21.0019C115.763 20.4665 115.92 19.931 116.23 19.407C116.54 18.8868 116.995 18.4508 117.576 18.1066C118.161 17.7662 118.892 17.5902 119.745 17.5902C120.598 17.5902 121.24 17.7662 121.776 18.1104C122.307 18.4546 122.717 18.8907 122.992 19.4108C123.267 19.931 123.409 20.4664 123.409 20.9981V21.1434H115.759L115.763 21.1473Z" fill="#02090F"/>
<path d="M137.439 18.1972C138.028 18.1972 138.571 18.2776 139.056 18.4382L139.76 15.1795C139.512 15.0992 139.267 15.038 139.03 15.0036C138.75 14.9615 138.429 14.9424 138.077 14.9424C137.289 14.9424 136.605 15.061 136.039 15.2981C135.469 15.5352 134.987 15.8182 134.604 16.1395C134.218 16.4646 133.908 16.7744 133.683 17.0613L133.442 17.3673L133.335 15.2292H130.007V29.9354H133.488V21.9914C133.488 20.844 133.882 19.9146 134.658 19.2261C135.431 18.5453 136.364 18.1972 137.442 18.1972H137.439Z" fill="#02090F"/>
<path d="M144.594 28.9412C145.309 29.9204 146.568 30.4176 148.346 30.4176C149.218 30.4176 150.018 30.2799 150.725 30.0121C151.398 29.7559 152.091 29.3505 152.787 28.8074L151.349 26.7114C151.062 26.9141 150.756 27.0939 150.442 27.243C150.071 27.4228 149.57 27.5146 148.954 27.5146C148.262 27.5146 147.753 27.2583 147.44 26.7573C147.138 26.2754 146.985 25.5869 146.985 24.711V18.0101H151.016V15.2333H146.985V10.3721H143.504V15.2333H140.945V18.0101H143.504V24.9673C143.504 26.6119 143.871 27.9506 144.594 28.945V28.9412Z" fill="#02090F"/>
<path d="M160.72 30.4481C161.867 30.4481 162.93 30.2569 163.879 29.8821C164.82 29.5073 165.589 28.968 166.155 28.2795C166.717 27.5949 167 26.784 167 25.8623C167 24.4662 166.56 23.4144 165.696 22.7336C164.812 22.0375 163.607 21.5135 162.123 21.1808C160.88 20.8786 159.951 20.5918 159.362 20.324C158.719 20.0334 158.398 19.6165 158.398 19.0848C158.398 18.6526 158.601 18.2854 159.002 17.9909C159.396 17.7041 160.031 17.5626 160.945 17.5626C161.86 17.5626 162.628 17.6888 163.313 17.9412C163.933 18.1669 164.445 18.4193 164.847 18.6909L166.625 16.2698C165.944 15.7726 165.16 15.3901 164.292 15.1339C163.366 14.8623 162.238 14.7246 160.945 14.7246C159.966 14.7246 158.999 14.9044 158.073 15.2601C157.151 15.6119 156.386 16.1359 155.797 16.8167C155.216 17.4899 154.921 18.3199 154.921 19.2799C154.921 20.2399 155.174 20.9704 155.671 21.5671C156.176 22.1752 156.799 22.6533 157.522 22.9822C158.257 23.3188 158.957 23.5751 159.607 23.7395C160.712 23.9958 161.55 24.2406 162.089 24.4662C162.651 24.7034 163.018 24.9367 163.217 25.1815C163.42 25.4301 163.523 25.7246 163.523 26.0573C163.523 26.589 163.248 26.9829 162.701 27.2315C162.196 27.4648 161.519 27.5796 160.689 27.5796C159.756 27.5796 158.914 27.4189 158.184 27.1053C157.511 26.8146 156.933 26.4475 156.474 26.0114L154.397 28.2642C155.048 28.9603 155.916 29.4996 156.979 29.8668C158.1 30.2531 159.358 30.452 160.72 30.452V30.4481Z" fill="#02090F"/>
<path d="M95.9667 0.0451857C93.1593 0.848383 91.1284 2.71486 89.3996 4.88349C89.2849 5.03266 89.2849 5.24302 89.4111 5.39218C89.5564 5.5643 89.8127 5.58724 89.9848 5.4419C91.5568 4.14914 93.5648 2.93669 95.5728 2.60394C96.6934 4.27918 97.2901 6.42486 96.9841 8.43286C96.9458 8.63174 97.0529 8.83446 97.2518 8.9033C97.466 8.9798 97.7031 8.86888 97.7796 8.65469C98.0015 8.02743 98.208 7.3734 98.2807 6.69642C98.5981 5.40366 97.9823 -0.551475 95.9705 0.0413609L95.9667 0.0451857Z" fill="#F19E38"/>
<path d="M84.8823 24.9443L88.3705 29.9356H92.7689L87.028 22.1217L87.0853 22.0375L85.4024 19.7886L82.1093 15.2295H77.7109L83.1841 22.6954L84.8823 24.9443Z" fill="#02090F"/>
<path d="M94.6316 6.5287C92.2526 18.963 82.8246 32.1775 70.8493 36.8513C70.4554 37.0196 70.0767 36.4956 70.3674 36.1781C71.4574 34.9007 72.6622 33.8297 73.7752 32.6632C79.2944 27.0752 84.5878 21.2425 88.5923 14.4498C90.2523 11.761 91.7669 8.91917 93.0864 6.05444C93.4612 5.20917 94.7999 5.60694 94.6316 6.5287Z" fill="#F19E38"/>
</svg>
