<svg width="132" height="53" viewBox="0 0 132 53" fill="none" xmlns="http://www.w3.org/2000/svg">
<path d="M10.1961 11.1747C9.58965 10.7414 8.92517 10.5391 7.79869 10.4812C7.2787 10.4524 6.99004 10.4524 6.55671 10.4524C6.44121 10.4524 6.38355 10.5102 6.38355 10.6546V17.5001C6.38355 19.4066 6.47021 19.8977 7.39436 20.2731C8.17418 20.5909 8.8385 20.6197 9.50282 20.6197C10.8028 20.6197 12.9979 19.9262 12.9979 16.9223C12.9979 15.1315 12.3914 12.7054 10.1961 11.1747ZM6.38355 8.86393C6.38355 9.09509 6.47021 9.15276 6.58571 9.18159C6.84571 9.23959 7.27886 9.26826 7.94335 9.26826C8.8965 9.26826 9.53199 9.15293 10.0228 8.7196C10.7738 8.11295 11.2071 7.0733 11.2071 5.65799C11.2071 3.72253 10.0806 1.18074 7.59652 1.18074C7.1922 1.18074 6.9322 1.18074 6.64338 1.23857C6.44105 1.29641 6.38338 1.4119 6.38338 1.72956L6.38355 8.86393ZM2.91728 8.37277C2.91728 3.98235 2.91728 3.17354 2.85945 2.24922C2.80161 1.26741 2.57062 0.80508 1.61747 0.602917C1.38647 0.545252 0.895316 0.516252 0.490991 0.516252C0.17333 0.516252 0 0.45842 0 0.256257C0 0.054094 0.202163 -0.00357099 0.635488 -0.00390625C2.16629 -0.00390625 3.98609 0.0829265 4.56375 0.0829265C5.97905 0.0829265 7.1057 -0.00390625 8.08768 -0.00357099C13.3158 -0.00357099 14.2401 2.79804 14.2401 4.32901C14.2401 6.69747 12.8824 8.11261 11.2938 9.38375C13.6624 10.1922 16.5507 12.2434 16.5507 15.6228C16.5507 18.7136 14.1532 21.9195 8.8385 21.9195C8.49201 21.9195 7.65436 21.8617 6.81654 21.8327C5.95006 21.775 5.08357 21.746 4.65025 21.746C4.33242 21.746 3.69693 21.746 3.00378 21.775C2.33946 21.775 1.58864 21.8327 1.01081 21.8327C0.635321 21.8327 0.43299 21.746 0.43299 21.5439C0.43299 21.3995 0.548656 21.3127 0.895316 21.3127C1.32847 21.3127 1.67513 21.255 1.93513 21.1974C2.51279 21.0817 2.65728 20.4464 2.77278 19.6086C2.91711 18.3956 2.91711 16.1135 2.91711 13.4562L2.91728 8.37277ZM20.4489 10.3659C20.4489 6.63981 20.4779 5.94648 20.4201 5.1665C20.3623 4.30001 20.1313 4.06902 19.3225 3.83786C19.1203 3.77986 18.687 3.75119 18.3405 3.75119C18.0515 3.75119 17.9073 3.66436 17.9073 3.4912C17.9073 3.31787 18.0805 3.26003 18.456 3.26003C19.8136 3.26003 21.5178 3.31787 22.2686 3.31787C22.9042 3.31787 24.6084 3.26003 25.5327 3.26003C25.9082 3.26003 26.0813 3.31787 26.0813 3.4912C26.0813 3.66436 25.937 3.75119 25.6772 3.75119C25.3882 3.75119 25.2439 3.78002 24.9264 3.83786C24.2619 3.95335 24.0597 4.30001 24.0017 5.1665C23.944 5.94632 23.944 6.63981 23.944 10.3659V13.8032C23.944 17.3848 24.6372 18.7712 25.8792 19.7532C27.0057 20.6489 28.219 20.7352 29.0856 20.7352C30.1829 20.7352 31.4829 20.4175 32.4937 19.4354C33.909 18.1068 33.9669 15.9693 33.9669 13.4563V10.3659C33.9669 6.63981 33.938 5.94648 33.909 5.1665C33.8512 4.32901 33.649 4.06902 32.8404 3.83786C32.6382 3.77986 32.2049 3.75119 31.9159 3.75119C31.6271 3.75119 31.4827 3.66436 31.4827 3.4912C31.4827 3.31787 31.6561 3.26003 32.0027 3.26003C33.3025 3.26003 35.0067 3.31787 35.0355 3.31787C35.3247 3.31787 37.0288 3.26003 38.0106 3.26003C38.3573 3.26003 38.5308 3.31787 38.5308 3.4912C38.5308 3.66436 38.3863 3.75119 38.0975 3.75119C37.8086 3.75119 37.6641 3.78002 37.3465 3.83786C36.6531 3.95335 36.4801 4.30001 36.4221 5.1665C36.3933 5.94632 36.3643 6.63981 36.3643 10.3659V12.9944C36.3643 15.7383 36.0755 18.6269 33.938 20.3887C32.1471 21.8907 30.2119 22.1505 28.5655 22.1505C27.2367 22.1505 24.6084 22.0929 22.7597 20.4754C21.4599 19.3487 20.4488 17.5293 20.4488 13.9765L20.4489 10.3659ZM40.8984 21.515C40.4939 21.3419 40.4074 21.226 40.4074 20.6774C40.4074 19.3486 40.5227 17.8179 40.5516 17.4136C40.5516 17.0381 40.6671 16.7779 40.8694 16.7779C41.1006 16.7779 41.1294 17.0091 41.1294 17.1824C41.1294 17.5001 41.2161 18.0199 41.3605 18.4533C41.9094 20.2729 43.8157 20.8797 45.4045 20.8797C47.5996 20.8797 48.9282 19.4932 48.9282 17.7603C48.9282 16.6915 48.6681 15.6228 46.4153 14.294L44.9422 13.4273C41.9382 11.6655 40.9562 10.0189 40.9562 7.85278C40.9562 4.84884 43.8447 2.91354 47.3684 2.91354C49.0147 2.91354 50.3149 3.1447 50.979 3.31787C51.2102 3.37553 51.3255 3.4622 51.3255 3.63569C51.3255 3.95352 51.239 4.64668 51.239 6.58197C51.239 7.1018 51.1234 7.36162 50.9212 7.36162C50.7479 7.36162 50.6614 7.21729 50.6614 6.92847C50.6614 6.6973 50.5457 5.94632 49.9969 5.31083C49.6214 4.84884 48.8129 4.15568 47.1661 4.15568C45.3466 4.15568 43.7 5.10867 43.7 6.78397C43.7 7.88178 44.1043 8.7481 46.3861 10.0191L47.4261 10.5966C50.7765 12.4454 51.8165 14.3228 51.8165 16.547C51.8165 18.3664 51.123 19.8399 49.2746 21.1395C48.0614 22.0062 46.3861 22.1502 45.0286 22.1502C43.5558 22.1503 41.9959 22.0064 40.8984 21.515ZM56.0911 10.3659C56.0911 6.63981 56.0911 5.94648 56.0624 5.1665C56.0046 4.32901 55.7446 4.04002 55.1958 3.86669C54.907 3.77986 54.5891 3.75136 54.2715 3.75136C54.0117 3.75136 53.867 3.69353 53.867 3.46236C53.867 3.31803 54.0691 3.2602 54.4736 3.2602C55.427 3.2602 57.1598 3.31803 57.8819 3.31803C58.5176 3.31803 60.1639 3.2602 61.146 3.2602C61.4637 3.2602 61.666 3.31803 61.666 3.46236C61.666 3.69353 61.5217 3.75136 61.2615 3.75136C61.0017 3.75136 60.7995 3.78002 60.5107 3.83802C59.8174 3.95352 59.6152 4.30018 59.5574 5.16667C59.4997 5.94648 59.4997 6.63997 59.4997 10.3661V14.6987C59.4997 17.0671 59.4997 19.0314 59.615 20.0714C59.7017 20.7355 59.8752 21.111 60.626 21.2265C60.9725 21.2845 61.5503 21.3134 61.9258 21.3134C62.2147 21.3134 62.3302 21.4577 62.3302 21.5735C62.3302 21.7467 62.128 21.8334 61.839 21.8334C60.1639 21.8334 58.4307 21.7467 57.7374 21.7467C57.1598 21.7467 55.4268 21.8334 54.4158 21.8334C54.098 21.8334 53.9248 21.7467 53.9248 21.5735C53.9248 21.4579 54.0115 21.3134 54.3291 21.3134C54.7046 21.3134 54.9935 21.2845 55.2245 21.2265C55.7444 21.1112 55.8889 20.7645 55.9754 20.0426C56.0908 19.0316 56.0908 17.0673 56.0908 14.6988V10.3659M68.2224 18.4823C68.28 20.3885 68.5979 20.9662 69.0889 21.1397C69.5222 21.284 70.0132 21.3129 70.4175 21.3129C70.7063 21.3129 70.8508 21.4285 70.8508 21.573C70.8508 21.7752 70.6197 21.8329 70.2732 21.8329C68.6269 21.8329 67.4422 21.7462 66.9802 21.7462C66.7492 21.7462 65.5361 21.8329 64.2363 21.8329C63.8896 21.8329 63.6586 21.8042 63.6586 21.573C63.6586 21.4287 63.832 21.3129 64.063 21.3129C64.4096 21.3129 64.8716 21.284 65.2186 21.1975C65.8828 21.0242 65.9694 20.3597 65.9983 18.2223L66.2294 3.66453C66.2294 3.17354 66.4026 2.82687 66.6627 2.82687C66.9804 2.82687 67.3271 3.20237 67.7602 3.63569C68.078 3.95352 71.8908 7.85278 75.5877 11.4634C77.321 13.1675 80.7005 16.6338 81.076 16.9803H81.1915L80.9311 6.06181C80.9026 4.55984 80.6715 4.12652 80.0652 3.89552C79.6897 3.75119 79.0827 3.75119 78.7362 3.75119C78.4185 3.75119 78.3317 3.63569 78.3317 3.4912C78.3317 3.28903 78.5917 3.26003 78.9672 3.26003C80.296 3.26003 81.6535 3.31787 82.2025 3.31787C82.4913 3.31787 83.4443 3.26003 84.6864 3.26003C85.0331 3.26003 85.2639 3.28887 85.2639 3.4912C85.2639 3.63553 85.1196 3.75119 84.8307 3.75119C84.5706 3.75119 84.3686 3.75119 84.0508 3.83786C83.3574 4.04002 83.1554 4.47334 83.1264 5.85982L82.8376 21.3419C82.8376 21.8905 82.6354 22.1217 82.4331 22.1217C82 22.1217 81.6535 21.8617 81.3933 21.6015C79.8045 20.1286 76.6272 17.0958 73.9703 14.525C71.1973 11.8675 68.511 8.89226 68.0197 8.4591H67.9332L68.2224 18.4823ZM89.7115 10.3659C89.7115 6.63981 89.7115 5.94648 89.6823 5.1665C89.6246 4.32901 89.3936 4.06902 88.5847 3.83786C88.3827 3.77986 87.9495 3.75119 87.574 3.75119C87.3139 3.75119 87.1407 3.66436 87.1407 3.4912C87.1407 3.31787 87.3429 3.26003 87.7183 3.26003C89.047 3.26003 90.6646 3.31787 91.3866 3.31787C92.1953 3.31787 97.8277 3.34653 98.3188 3.31787C98.781 3.28887 99.1855 3.20237 99.3875 3.17354C99.532 3.1447 99.6763 3.05804 99.7918 3.05804C99.9363 3.05804 99.9651 3.17354 99.9651 3.28903C99.9651 3.46236 99.8208 3.75136 99.7628 4.87784C99.7341 5.13783 99.6761 6.20665 99.6186 6.49531C99.5896 6.61064 99.532 6.89963 99.3298 6.89963C99.1565 6.89963 99.1273 6.78414 99.1273 6.58197C99.1273 6.40864 99.0986 5.97532 98.9543 5.68632C98.7518 5.25316 98.5498 4.90667 97.2788 4.79101C96.8457 4.73301 93.8129 4.67551 93.2929 4.67551C93.1776 4.67551 93.1196 4.76217 93.1196 4.90667V10.9722C93.1196 11.1167 93.1486 11.2324 93.2929 11.2324C93.8706 11.2324 97.1635 11.2324 97.7411 11.1747C98.3478 11.1167 98.7231 11.0591 98.9543 10.7992C99.1565 10.6257 99.2431 10.4814 99.3588 10.4814C99.4741 10.4814 99.561 10.5969 99.561 10.7416C99.561 10.8859 99.5028 11.2902 99.3588 12.5324C99.3006 13.0235 99.2431 14.0055 99.2431 14.1787C99.2431 14.3808 99.2141 14.7275 98.9833 14.7275C98.81 14.7275 98.7518 14.6407 98.7518 14.5253C98.7231 14.2652 98.7231 13.9477 98.6653 13.6297C98.521 13.1387 98.203 12.7632 97.25 12.6767C96.7878 12.6187 93.8994 12.561 93.2642 12.561C93.1486 12.561 93.1196 12.6767 93.1196 12.8212V14.7853C93.1196 15.623 93.0909 17.7026 93.1196 18.4246C93.1776 20.0999 93.9571 20.4754 96.557 20.4754C97.2213 20.4754 98.29 20.4466 98.9545 20.1576C99.5898 19.8687 99.8786 19.3489 100.052 18.3381C100.11 18.0779 100.167 17.9626 100.341 17.9626C100.543 17.9626 100.572 18.2804 100.572 18.5401C100.572 19.0889 100.37 20.7644 100.225 21.2554C100.052 21.8907 99.8211 21.8907 98.8678 21.8907C96.9615 21.8907 95.4305 21.8619 94.1887 21.8042C92.9466 21.7752 91.9933 21.7462 91.2425 21.7462C90.9533 21.7462 90.4046 21.7752 89.7983 21.7752C89.1917 21.8042 88.5562 21.8329 88.0362 21.8329C87.7185 21.8329 87.5452 21.7462 87.5452 21.573C87.5452 21.4574 87.6319 21.3129 87.9497 21.3129C88.325 21.3129 88.6138 21.284 88.845 21.226C89.365 21.1107 89.5091 20.6487 89.5958 19.9262C89.7115 18.8866 89.7115 16.9513 89.7115 14.6982V10.3659ZM103.748 21.515C103.344 21.3419 103.257 21.226 103.257 20.6774C103.257 19.3486 103.373 17.8179 103.402 17.4136C103.402 17.0381 103.517 16.7779 103.719 16.7779C103.95 16.7779 103.979 17.0091 103.979 17.1824C103.979 17.5001 104.066 18.0199 104.211 18.4533C104.759 20.2729 106.666 20.8797 108.254 20.8797C110.449 20.8797 111.778 19.4932 111.778 17.7603C111.778 16.6915 111.518 15.6228 109.265 14.294L107.792 13.4273C104.788 11.6655 103.806 10.0189 103.806 7.85278C103.806 4.84884 106.694 2.91354 110.218 2.91354C111.865 2.91354 113.165 3.1447 113.829 3.31787C114.06 3.37553 114.176 3.4622 114.176 3.63569C114.176 3.95352 114.089 4.64668 114.089 6.58197C114.089 7.1018 113.973 7.36162 113.771 7.36162C113.598 7.36162 113.511 7.21729 113.511 6.92847C113.511 6.6973 113.396 5.94632 112.847 5.31083C112.471 4.84884 111.663 4.15568 110.016 4.15568C108.196 4.15568 106.55 5.10867 106.55 6.78397C106.55 7.88178 106.954 8.7481 109.236 10.0191L110.276 10.5966C113.627 12.4454 114.666 14.3228 114.666 16.547C114.666 18.3664 113.973 19.8399 112.124 21.1395C110.911 22.0062 109.236 22.1502 107.878 22.1502C106.405 22.1503 104.846 22.0064 103.748 21.515ZM118.132 21.515C117.728 21.3419 117.641 21.226 117.641 20.6774C117.641 19.3486 117.756 17.8179 117.785 17.4136C117.785 17.0381 117.901 16.7779 118.103 16.7779C118.334 16.7779 118.363 17.0091 118.363 17.1824C118.363 17.5001 118.45 18.0199 118.594 18.4533C119.143 20.2729 121.049 20.8797 122.638 20.8797C124.833 20.8797 126.162 19.4932 126.162 17.7603C126.162 16.6915 125.902 15.6228 123.649 14.294L122.176 13.4273C119.172 11.6655 118.19 10.0189 118.19 7.85278C118.19 4.84884 121.078 2.91354 124.602 2.91354C126.249 2.91354 127.548 3.1447 128.213 3.31787C128.444 3.37553 128.559 3.4622 128.559 3.63569C128.559 3.95352 128.473 4.64668 128.473 6.58197C128.473 7.1018 128.357 7.36162 128.155 7.36162C127.981 7.36162 127.895 7.21729 127.895 6.92847C127.895 6.6973 127.779 5.94632 127.23 5.31083C126.855 4.84884 126.046 4.15568 124.4 4.15568C122.58 4.15568 120.934 5.10867 120.934 6.78397C120.934 7.88178 121.338 8.7481 123.62 10.0191L124.66 10.5966C128.01 12.4454 129.05 14.3228 129.05 16.547C129.05 18.3664 128.357 19.8399 126.508 21.1395C125.295 22.0062 123.62 22.1502 122.262 22.1502C120.789 22.1503 119.23 22.0064 118.132 21.515ZM4.10109 39.2269C4.10109 34.8363 4.10109 34.0277 4.04325 33.1035C3.98542 32.1212 3.69659 31.6304 3.06127 31.4859C2.74345 31.399 2.36795 31.3702 2.02146 31.3702C1.73246 31.3702 1.5593 31.3125 1.5593 31.0817C1.5593 30.9082 1.7903 30.8504 2.25245 30.8504C3.3501 30.8504 5.16973 30.9372 6.00738 30.9372C6.72954 30.9372 8.43367 30.8504 9.53115 30.8504C9.90664 30.8504 10.1378 30.9082 10.1378 31.0817C10.1378 31.3125 9.96448 31.3702 9.67565 31.3702C9.38665 31.3702 9.15566 31.3992 8.809 31.4574C8.02918 31.6014 7.79802 32.0927 7.74035 33.1037C7.68252 34.028 7.68252 34.8365 7.68252 39.2271V44.3105C7.68252 47.1123 7.68252 49.3944 7.79785 50.6362C7.88468 51.416 8.08684 51.9358 8.9535 52.0515C9.35782 52.1092 9.99331 52.1668 10.4265 52.1668C10.7443 52.1668 10.8886 52.2537 10.8886 52.398C10.8886 52.6001 10.6576 52.6868 10.34 52.6868C8.43351 52.6868 6.61387 52.6001 5.83389 52.6001C5.16957 52.6001 3.34993 52.6868 2.19445 52.6868C1.81913 52.6868 1.6168 52.6001 1.6168 52.398C1.6168 52.2537 1.7323 52.1668 2.07896 52.1668C2.51228 52.1668 2.85894 52.109 3.11894 52.0515C3.69643 51.9358 3.86976 51.4448 3.95659 50.6072C4.10092 49.3944 4.10092 47.1121 4.10092 44.3105L4.10109 39.2269ZM18.8028 49.3364C18.8606 51.2427 19.1783 51.8203 19.6695 51.9938C20.1026 52.1382 20.5938 52.167 20.9981 52.167C21.2869 52.167 21.4314 52.2825 21.4314 52.4272C21.4314 52.6293 21.2004 52.687 20.8538 52.687C19.2075 52.687 18.0232 52.6003 17.5608 52.6003C17.3298 52.6003 16.1167 52.687 14.8169 52.687C14.4702 52.687 14.2392 52.658 14.2392 52.4272C14.2392 52.2827 14.4126 52.167 14.6436 52.167C14.9902 52.167 15.4524 52.1382 15.799 52.0517C16.4634 51.8783 16.55 51.2142 16.5789 49.0765L16.81 34.5188C16.81 34.0278 16.9832 33.6813 17.2432 33.6813C17.561 33.6813 17.9075 34.0567 18.3408 34.4898C18.6586 34.8076 22.4714 38.7069 26.1685 42.3175C27.9016 44.0216 31.2811 47.4877 31.6566 47.8344H31.7719L31.5121 36.9159C31.4831 35.414 31.2521 34.9808 30.6454 34.7495C30.2699 34.6055 29.6634 34.6055 29.3166 34.6055C28.999 34.6055 28.9123 34.4898 28.9123 34.3453C28.9123 34.1432 29.1725 34.1142 29.5478 34.1142C30.8766 34.1142 32.2341 34.1722 32.7829 34.1722C33.0719 34.1722 34.0249 34.1142 35.2672 34.1142C35.6137 34.1142 35.8447 34.1432 35.8447 34.3453C35.8447 34.4897 35.7002 34.6055 35.4113 34.6055C35.1512 34.6055 34.9492 34.6055 34.6313 34.692C33.9382 34.8943 33.736 35.3276 33.707 36.7139L33.418 52.196C33.418 52.7446 33.216 52.9758 33.0139 52.9758C32.5806 52.9758 32.2341 52.716 31.9739 52.4557C30.3854 50.9827 27.208 47.9499 24.5507 45.3791C21.7779 42.7218 19.0916 39.7466 18.6005 39.3134H18.5138L18.8028 49.3364ZM41.3314 52.3693C40.9272 52.196 40.8404 52.0802 40.8404 51.5315C40.8404 50.2029 40.9559 48.6722 40.9847 48.2677C40.9847 47.8924 41.1002 47.6322 41.3026 47.6322C41.5335 47.6322 41.5625 47.8632 41.5625 48.0366C41.5625 48.3544 41.6492 48.8744 41.7935 49.3075C42.3422 51.1272 44.2487 51.7337 45.8375 51.7337C48.0326 51.7337 49.3612 50.3474 49.3612 48.6142C49.3612 47.5457 49.1012 46.4769 46.8484 45.1483L45.3751 44.2818C42.3712 42.5195 41.3892 40.8734 41.3892 38.7069C41.3892 35.703 44.2775 33.7677 47.8014 33.7677C49.4479 33.7677 50.7477 33.9987 51.412 34.1722C51.6432 34.23 51.7587 34.3165 51.7587 34.4898C51.7587 34.8076 51.6719 35.5006 51.6719 37.4361C51.6719 37.9561 51.5565 38.2158 51.354 38.2158C51.1809 38.2158 51.094 38.0714 51.094 37.7826C51.094 37.5516 50.9787 36.8008 50.4297 36.1651C50.0542 35.703 49.2456 35.0098 47.5991 35.0098C45.7795 35.0098 44.133 35.963 44.133 37.6383C44.133 38.7359 44.5373 39.6026 46.8189 40.8734L47.8589 41.451C51.2095 43.2995 52.2492 45.1771 52.2492 47.4011C52.2492 49.2209 51.556 50.694 49.7076 51.9937C48.4944 52.8601 46.8189 53.0046 45.4615 53.0046C43.9892 53.0048 42.4292 52.8603 41.3314 52.3693ZM58.9506 41.2197C58.9506 37.4936 58.9506 36.8008 58.9219 36.0206C58.8641 35.1831 58.6041 34.8941 58.0552 34.7208C57.7664 34.6341 57.4486 34.6055 57.1309 34.6055C56.8708 34.6055 56.7264 34.5475 56.7264 34.3165C56.7264 34.1722 56.9286 34.1142 57.3331 34.1142C58.2864 34.1142 60.0192 34.1722 60.7414 34.1722C61.377 34.1722 63.0231 34.1142 64.0055 34.1142C64.3231 34.1142 64.5255 34.1722 64.5255 34.3165C64.5255 34.5475 64.3811 34.6055 64.121 34.6055C63.8611 34.6055 63.659 34.6343 63.3701 34.692C62.6768 34.8076 62.4747 35.1543 62.4168 36.0208C62.3592 36.8008 62.3592 37.4938 62.3592 41.2199V45.5528C62.3592 47.9214 62.3592 49.8855 62.4745 50.9254C62.5612 51.5898 62.7346 51.9652 63.4855 52.0805C63.832 52.1385 64.4098 52.1673 64.7853 52.1673C65.0741 52.1673 65.1894 52.3117 65.1894 52.4275C65.1894 52.6007 64.9874 52.6873 64.6984 52.6873C63.0231 52.6873 61.2902 52.6007 60.5969 52.6007C60.0192 52.6007 58.2862 52.6873 57.2752 52.6873C56.9574 52.6873 56.7841 52.6007 56.7841 52.4275C56.7841 52.3118 56.8708 52.1673 57.1886 52.1673C57.5641 52.1673 57.8527 52.1385 58.0839 52.0805C58.6039 51.9652 58.7484 51.6185 58.8349 50.8965C58.9502 49.8857 58.9502 47.9216 58.9502 45.5529V41.2197M75.3277 43.9348C75.3277 46.5346 75.3566 48.4121 75.3856 48.9031C75.4142 49.5097 75.4726 50.3762 75.6744 50.6362C75.9922 51.0983 77.0031 51.6182 78.996 51.6182C81.3066 51.6182 83.0109 51.214 84.5419 49.9429C86.1882 48.5854 86.7084 46.3901 86.7084 43.8485C86.7084 40.729 85.4662 38.7069 84.3397 37.7251C82 35.6453 79.2272 35.3855 77.2342 35.3855C76.7139 35.3855 75.8764 35.4431 75.6742 35.5586C75.4432 35.6453 75.3564 35.761 75.3564 36.0496C75.3276 36.8874 75.3276 38.9094 75.3276 40.8444V43.9348H75.3277ZM71.9195 41.2197C71.9195 37.4936 71.9195 36.8008 71.8903 36.0206C71.8325 35.1831 71.6015 34.923 70.7928 34.6918C70.5905 34.6342 70.1572 34.6053 69.7818 34.6053C69.5219 34.6053 69.3487 34.5185 69.3487 34.3452C69.3487 34.172 69.5508 34.114 69.9263 34.114C71.2552 34.114 72.8725 34.172 73.5948 34.172C74.3744 34.172 76.1944 34.114 77.7254 34.114C80.9025 34.114 85.1772 34.114 87.9502 36.9158C89.2212 38.1869 90.3476 40.2375 90.3476 43.1552C90.3476 46.2459 89.019 48.5854 87.5747 50.0007C86.4194 51.1558 83.7329 52.889 79.0537 52.889C78.1294 52.889 77.0319 52.8023 76.0211 52.7445C75.0101 52.6576 74.0856 52.6001 73.4503 52.6001C73.1613 52.6001 72.6125 52.6292 72.0061 52.6292C71.3997 52.6578 70.764 52.6868 70.2438 52.6868C69.9263 52.6868 69.753 52.6002 69.753 52.427C69.753 52.3113 69.8397 52.1668 70.1572 52.1668C70.5327 52.1668 70.8217 52.138 71.0528 52.08C71.5728 51.9647 71.7171 51.5027 71.8038 50.7803C71.9193 49.7407 71.9193 47.8054 71.9193 45.5523V41.2197M96.8455 41.2197C96.8455 37.4936 96.8455 36.8008 96.8167 36.0206C96.7588 35.1831 96.528 34.923 95.719 34.6918C95.517 34.6342 95.0835 34.6053 94.708 34.6053C94.4484 34.6053 94.2749 34.5185 94.2749 34.3452C94.2749 34.172 94.4772 34.114 94.8525 34.114C96.1814 34.114 97.7987 34.172 98.521 34.172C99.3296 34.172 104.962 34.2007 105.453 34.172C105.916 34.143 106.32 34.0565 106.522 34.0277C106.666 33.9985 106.811 33.912 106.926 33.912C107.071 33.912 107.1 34.0277 107.1 34.1432C107.1 34.3165 106.955 34.6055 106.897 35.732C106.869 35.9918 106.81 37.0606 106.753 37.3493C106.724 37.4648 106.666 37.7538 106.464 37.7538C106.291 37.7538 106.262 37.6383 106.262 37.4359C106.262 37.2628 106.233 36.8294 106.089 36.5404C105.886 36.1073 105.684 35.7608 104.413 35.645C103.98 35.5871 100.947 35.5296 100.427 35.5296C100.312 35.5296 100.254 35.6161 100.254 35.7608V41.8265C100.254 41.9708 100.283 42.0863 100.427 42.0863C101.005 42.0863 104.298 42.0863 104.876 42.0287C105.482 41.9708 105.857 41.9132 106.089 41.6534C106.291 41.48 106.377 41.3355 106.493 41.3355C106.609 41.3355 106.695 41.451 106.695 41.5954C106.695 41.7399 106.637 42.144 106.493 43.3863C106.435 43.8775 106.377 44.8595 106.377 45.0328C106.377 45.2348 106.349 45.5816 106.118 45.5816C105.944 45.5816 105.886 45.4949 105.886 45.3793C105.858 45.1195 105.858 44.8018 105.8 44.484C105.656 43.9928 105.338 43.6173 104.385 43.5307C103.923 43.4728 101.034 43.4152 100.399 43.4152C100.283 43.4152 100.254 43.5307 100.254 43.6751V45.6393C100.254 46.4769 100.225 48.5566 100.254 49.2787C100.312 50.9538 101.092 51.3293 103.692 51.3293C104.356 51.3293 105.425 51.3005 106.089 51.0115C106.724 50.723 107.013 50.2029 107.186 49.192C107.244 48.9321 107.302 48.8167 107.475 48.8167C107.677 48.8167 107.707 49.1344 107.707 49.3944C107.707 49.9427 107.504 51.6182 107.36 52.109C107.186 52.7445 106.956 52.7445 106.003 52.7445C104.096 52.7445 102.565 52.7158 101.323 52.6576C100.081 52.629 99.1276 52.6 98.377 52.6C98.0878 52.6 97.5392 52.629 96.9328 52.629C96.3264 52.6576 95.6909 52.6866 95.1704 52.6866C94.853 52.6866 94.6799 52.6 94.6799 52.4268C94.6799 52.3112 94.7664 52.1667 95.0839 52.1667C95.4594 52.1667 95.7485 52.1378 95.9794 52.0798C96.4994 51.9645 96.6437 51.5025 96.7303 50.7802C96.8458 49.7407 96.8458 47.8054 96.8458 45.5523L96.8455 41.2197ZM117.353 43.1263C117.353 43.3862 117.411 43.4728 117.584 43.5595C118.133 43.733 118.884 43.7906 119.52 43.7906C120.53 43.7906 120.877 43.704 121.31 43.3862C122.09 42.8375 122.957 41.7687 122.957 39.7467C122.957 36.2806 120.588 35.3853 119.086 35.3853C118.451 35.3853 117.844 35.414 117.584 35.472C117.411 35.5298 117.353 35.6161 117.353 35.8185V43.1263ZM114.118 41.2197C114.118 37.4936 114.118 36.8008 114.089 36.0206C114.031 35.1831 113.8 34.923 112.991 34.6918C112.789 34.6342 112.356 34.6053 111.981 34.6053C111.721 34.6053 111.547 34.5185 111.547 34.3452C111.547 34.172 111.75 34.114 112.125 34.114C113.454 34.114 115.071 34.172 115.591 34.172C116.457 34.172 118.768 34.114 119.548 34.114C121.166 34.114 123.014 34.2587 124.372 35.154C125.094 35.645 126.163 36.8871 126.163 38.5334C126.163 40.3532 125.123 41.9707 122.639 43.9636C124.892 46.7364 126.683 48.9609 128.214 50.4915C129.629 51.9067 130.524 52.0223 130.929 52.1088C131.189 52.1667 131.333 52.1667 131.535 52.1667C131.737 52.1667 131.853 52.311 131.853 52.4268C131.853 52.629 131.68 52.6866 131.362 52.6866H128.936C127.52 52.6866 126.827 52.5423 126.163 52.1957C125.065 51.647 124.112 50.4915 122.697 48.5852C121.685 47.2564 120.617 45.6099 120.299 45.2345C120.155 45.0901 120.01 45.0613 119.837 45.0613L117.555 45.0036C117.44 45.0036 117.353 45.0613 117.353 45.2058V45.5523C117.353 47.8341 117.382 49.7405 117.497 50.7803C117.584 51.5027 117.699 51.9647 118.479 52.08C118.855 52.138 119.404 52.1668 119.721 52.1668C119.923 52.1668 120.039 52.3112 120.039 52.427C120.039 52.6002 119.837 52.6868 119.519 52.6868C118.046 52.6868 115.937 52.6001 115.562 52.6001C115.071 52.6001 113.453 52.6868 112.442 52.6868C112.125 52.6868 111.951 52.6002 111.951 52.427C111.951 52.3113 112.038 52.1668 112.356 52.1668C112.731 52.1668 113.02 52.138 113.251 52.08C113.771 51.9647 113.915 51.5027 114.002 50.7803C114.118 49.7407 114.118 47.8054 114.118 45.5523V41.2197" fill="white"/>
</svg>
