<svg width="90" height="63" viewBox="0 0 90 63" fill="none" xmlns="http://www.w3.org/2000/svg">
<path d="M45 0.727539H6.10352e-05V15.6241H14.8966V46.3482H30.1035V15.6241H45V0.727539ZM59.8966 0.727539H90V15.6241H59.8966V0.727539ZM59.8966 30.66V15.6241H45V46.3482H90V30.682L59.8966 30.66Z" fill="white"/>
<path d="M6.20689 52.5546V61.865H3.72414V52.5546H0V50.6926H9.31034V52.5546H6.20689ZM16.2838 58.1408H11.1206C11.2025 59.3822 12.0743 59.9514 12.8967 59.9514C13.5217 59.9514 14.0474 59.8126 14.3767 59.4334L15.988 60.8272C15.2975 61.7147 14.0474 62.2479 12.8967 62.2479C10.4136 62.2479 8.83489 60.5001 8.83489 57.7703C8.83489 55.1227 10.4955 53.27 12.6832 53.27C14.9856 53.27 16.317 55.1286 16.317 57.5955C16.317 57.9261 16.3005 58.1408 16.2838 58.1408ZM12.568 55.3533C11.7456 55.3533 11.236 55.6581 11.1538 56.8994H14.1139C14.0481 55.6581 13.5875 55.3533 12.568 55.3533ZM21.7269 62.2721C19.4738 62.2721 17.6819 60.4302 17.6819 57.7827C17.6819 55.1351 19.4251 53.2768 21.8256 53.2768C23.4701 53.2768 24.5225 54.0828 25.2462 55.1848L23.7501 56.6974C23.2402 55.9737 22.6977 55.4638 21.7769 55.4638C20.6913 55.4638 19.9843 56.3681 19.9843 57.7821C19.9843 59.164 20.6913 60.0851 21.7769 60.0851C22.6645 60.0851 23.2237 59.6907 23.8162 58.9834L25.263 60.348C24.4238 61.4665 23.4369 62.2721 21.7269 62.2721ZM31.9655 61.865V57.4208C31.9655 55.8756 31.6697 55.4151 30.7322 55.4151C29.7946 55.4151 29.4827 55.8759 29.4827 57.3724V61.8656H27V51.2391L29.4827 50.1035V54.0347C29.4827 53.6234 30.4774 53.2783 31.3817 53.2783C33.5855 53.2783 34.4482 54.791 34.4482 57.2247V61.8656L31.9655 61.865Z" fill="white"/>
<path d="M43.515 53.9347C43.1038 53.1458 42.4462 52.685 41.4106 52.685C39.6838 52.685 38.6975 54.1982 38.6975 56.3355C38.6975 58.4074 39.7006 59.9861 41.427 59.9861C42.4639 59.9861 43.0721 59.5423 43.6801 58.5229L45.6207 59.6736C44.8318 61.3017 43.4495 62.2718 41.3618 62.2718C38.3524 62.2718 36.3293 59.9688 36.3293 56.3349C36.3293 52.8324 38.4337 50.3987 41.4431 50.3987C43.6143 50.3987 44.9299 51.451 45.6527 52.9469L43.515 53.9347ZM51.9676 56.1053C51.6057 55.776 51.2395 55.546 50.7299 55.546C49.8426 55.546 49.3448 55.9253 49.3448 57.4205V61.8646H46.8621V53.175H49.3448V54.0337C49.9655 53.6225 50.2374 53.2774 51.0433 53.2774C51.7829 53.2774 52.3024 53.5729 52.5982 53.8857L51.9676 56.1053ZM59.2759 61.7877V61.5158C58.6552 61.9267 58.2812 62.2721 57.3769 62.2721C55.1728 62.2721 54.3103 60.7589 54.3103 58.3258V53.1753H56.1724V58.1278C56.1724 59.6736 56.7785 60.1342 57.7164 60.1342C58.6524 60.1342 59.2759 59.673 59.2759 58.1765V53.175H61.7586V61.8646H59.1784L59.2759 61.7877ZM68.2758 61.865V57.4208C68.2758 55.8756 68.1353 55.4151 67.1974 55.4151C66.2614 55.4151 66.1034 55.8759 66.1034 57.3724V61.8656H63.6207V53.1759H66.1034V54.0347C66.1034 53.6234 66.9429 53.2783 67.8473 53.2783C70.0513 53.2783 70.7586 54.791 70.7586 57.2247V61.8656L68.2758 61.865ZM76.7644 62.2721C74.5113 62.2721 72.7197 60.4302 72.7197 57.7827C72.7197 55.1351 74.4629 53.2768 76.8634 53.2768C78.5085 53.2768 79.5606 54.0828 80.2837 55.1848L78.7885 56.6974C78.2779 55.9737 77.7361 55.4638 76.8156 55.4638C75.7294 55.4638 75.0221 56.3681 75.0221 57.7821C75.0221 59.164 75.7294 60.0851 76.8156 60.0851C77.7022 60.0851 78.2624 59.6907 78.8546 58.9834L80.3014 60.348C79.4607 61.4665 78.4747 62.2721 76.7644 62.2721ZM86.8965 62.0915V57.4208C86.8965 55.8756 86.6008 55.4151 85.6629 55.4151C84.7269 55.4151 84.4138 55.8759 84.4138 57.3724V61.8656H81.931V51.2391L84.4138 50.1035V54.0347C84.4138 53.6234 85.4084 53.2783 86.3128 53.2783C88.5168 53.2783 89.3793 54.791 89.3793 57.2247V61.8656H86.9549L86.8965 62.0915Z" fill="white"/>
</svg>
